<svg width="148" height="32" viewBox="0 0 148 32" fill="none" xmlns="http://www.w3.org/2000/svg" xmlns:c2pa="http://c2pa.org/manifest"><metadata><c2pa:manifest>AAAWgmp1bWIAAAAeanVtZGMycGEAEQAQgAAAqgA4m3EDYzJwYQAAABZcanVtYgAAAEdqdW1kYzJtYQARABCAAACqADibcQN1cm46YzJwYToxZjIyMjllNS05M2NmLTQ1NzgtOWZiYy1iOGE1MmZkMjQ4OGYAAAADl2p1bWIAAAApanVtZGMyYXMAEQAQgAAAqgA4m3EDYzJwYS5hc3NlcnRpb25zAAAAALxqdW1iAAAARGp1bWRjYm9yABEAEIAAAKoAOJtxE2MycGEuaW5ncmVkaWVudC52MwAAAAAYYzJzaCbHzvw1OX/ujtARxK8iONEAAABwY2JvcqNpZGM6Zm9ybWF0bWltYWdlL3N2Zyt4bWxqaW5zdGFuY2VJRHgseG1wOmlpZDoxMmNjZWMzNS05N2FmLTRiZjktYmJlYy00M2UyZWQ3NzE5N2VscmVsYXRpb25zaGlwaHBhcmVudE9mAAAB4mp1bWIAAABBanVtZGNib3IAEQAQgAAAqgA4m3ETYzJwYS5hY3Rpb25zLnYyAAAAABhjMnNoY34NWFiNhvALWYKcOeHhCgAAAZljYm9yomdhY3Rpb25zgqJmYWN0aW9ua2MycGEub3BlbmVkanBhcmFtZXRlcnOha2luZ3JlZGllbnRzgaJjdXJseC1zZWxmI2p1bWJmPWMycGEuYXNzZXJ0aW9ucy9jMnBhLmluZ3JlZGllbnQudjNkaGFzaFggSLaV0fXCPyMgK4bm/1E6MwrY8Uo3eAMKT8ic1tPRns6kZmFjdGlvbngdY29tLmFudGhyb3BpYy5jbGF1ZGUucHJvdmlkZWRqcGFyYW1ldGVyc6F4H2NvbS5hbnRocm9waWMub3JpZ2luLWNvbmZpZGVuY2VndW5rbm93bmtkZXNjcmlwdGlvbnhmQ2xhdWRlIHByb3ZpZGVkIHRoaXMgZmlsZSBhdCB0aGUgcmVxdWVzdCBvZiBhIHVzZXIgYW5kIG1heSBoYXZlIGNyZWF0ZWQgb3IgbW9kaWZpZWQgdGhlIGZpbGUgY29udGVudHMubXNvZnR3YXJlQWdlbnShZG5hbWVmQ2xhdWRlcmFsbEFjdGlvbnNJbmNsdWRlZPUAAADIanVtYgAAAEBqdW1kY2JvcgARABCAAACqADibcRNjMnBhLmhhc2guZGF0YQAAAAAYYzJzaA86Bv2AFh/ngOGaMdPr22oAAACAY2JvcqVjYWxnZnNoYTI1NmNwYWRNAAAAAAAAAAAAAAAAAGRoYXNoWCDHPBDVYNe3oeD9WDtokL+i8KzYp8nUifCGG68a7Rov22RuYW1lbmp1bWJmIG1hbmlmZXN0amV4Y2x1c2lvbnOBomVzdGFydBigZmxlbmd0aBkeBAAAAj5qdW1iAAAAJ2p1bWRjMmNsABEAEIAAAKoAOJtxA2MycGEuY2xhaW0udjIAAAACD2Nib3KlY2FsZ2ZzaGEyNTZpc2lnbmF0dXJleE1zZWxmI2p1bWJmPS9jMnBhL3VybjpjMnBhOjFmMjIyOWU1LTkzY2YtNDU3OC05ZmJjLWI4YTUyZmQyNDg4Zi9jMnBhLnNpZ25hdHVyZWppbnN0YW5jZUlEeCx4bXA6aWlkOjI0YTA0OTcwLTlhOTItNDI1NS05MGM3LThjMjVlMTkyOWE4YnJjcmVhdGVkX2Fzc2VydGlvbnODomN1cmx4LXNlbGYjanVtYmY9YzJwYS5hc3NlcnRpb25zL2MycGEuaW5ncmVkaWVudC52M2RoYXNoWCBItpXR9cI/IyArhub/UTozCtjxSjd4AwpPyJzW09GezqJjdXJseCpzZWxmI2p1bWJmPWMycGEuYXNzZXJ0aW9ucy9jMnBhLmFjdGlvbnMudjJkaGFzaFgg/BG3Xm9GtIGY7otj+9MTcGbBKVRWebxtiJQY6jP9aPuiY3VybHgpc2VsZiNqdW1iZj1jMnBhLmFzc2VydGlvbnMvYzJwYS5oYXNoLmRhdGFkaGFzaFggWDafSTBnf7imeK/196A+f9m4l6AaIpf/bDSRMbcDHFl0Y2xhaW1fZ2VuZXJhdG9yX2luZm+jZG5hbWVvQW50aHJvcGljIEZpbGVzZ3ZlcnNpb25lMS4wLjBrc3BlY1ZlcnNpb25lMi40LjAAABA4anVtYgAAAChqdW1kYzJjcwARABCAAACqADibcQNjMnBhLnNpZ25hdHVyZQAAABAIY2JvctKEWQISogEmGCFZAgowggIGMIIBjaADAgECAhRA5aAK7sI50L64g/oGQgU9Z1UTADAKBggqhkjOPQQDAzBJMRcwFQYDVQQKEw5BbnRocm9waWMsIFBCQzEuMCwGA1UEAxMlQW50aHJvcGljIENvbnRlbnQgQ3JlZGVudGlhbHMgUm9vdCBDQTAeFw0yNjA4MDcxODQzNTZaFw0yODA4MDYxOTQzNTZaMEQxFzAVBgNVBAoTDkFudGhyb3BpYywgUEJDMSkwJwYDVQQDEyBBbnRocm9waWMgQ2xhdWRlIENvbnRlbnQgU2lnbmluZzBZMBMGByqGSM49AgEGCCqGSM49AwEHA0IABJh6CmvLUBgFFNU0vUKlOVtE6djd17L5SuwX0LemFisBM3dkd/3cyjxFA3Qo5S46fX0/ihY0VZ7mfb9KF703t5OjWDBWMA4GA1UdDwEB/wQEAwIHgDAVBgNVHSUEDjAMBgorBgEEAYPoXgIBMAwGA1UdEwEB/wQCMAAwHwYDVR0jBBgwFoAUzlHiBIFOZFsj+OPEz5o+nMHXXMIwCgYIKoZIzj0EAwMDZwAwZAIwMXMdFJ4BetLLVY7ORuE9noqbbAZOZn/aArXyTwFAZfKrPzxF2vPoJNf1+UCdg1XGAjBwX1zd9WGqYkqmL5SFqw1QySjr1zJfpJM9+1rdDwSPLMOPOjKuiXjoU/pUUeG9RwmhY3BhZFkNngAAAAAAAAAAAAAAAAAAAAAAAAAAAAAAAAAAAAAAAAAAAAAAAAAAAAAAAAAAAAAAAAAAAAAAAAAAAAAAAAAAAAAAAAAAAAAAAAAAAAAAAAAAAAAAAAAAAAAAAAAAAAAAAAAAAAAAAAAAAAAAAAAAAAAAAAAAAAAAAAAAAAAAAAAAAAAAAAAAAAAAAAAAAAAAAAAAAAAAAAAAAAAAAAAAAAAAAAAAAAAAAAAAAAAAAAAAAAAAAAAAAAAAAAAAAAAAAAAAAAAAAAAAAAAAAAAAAAAAAAAAAAAAAAAAAAAAAAAAAAAAAAAAAAAAAAAAAAAAAAAAAAAAAAAAAAAAAAAAAAAAAAAAAAAAAAAAAAAAAAAAAAAAAAAAAAAAAAAAAAAAAAAAAAAAAAAAAAAAAAAAAAAAAAAAAAAAAAAAAAAAAAAAAAAAAAAAAAAAAAAAAAAAAAAAAAAAAAAAAAAAAAAAAAAAAAAAAAAAAAAAAAAAAAAAAAAAAAAAAAAAAAAAAAAAAAAAAAAAAAAAAAAAAAAAAAAAAAAAAAAAAAAAAAAAAAAAAAAAAAAAAAAAAAAAAAAAAAAAAAAAAAAAAAAAAAAAAAAAAAAAAAAAAAAAAAAAAAAAAAAAAAAAAAAAAAAAAAAAAAAAAAAAAAAAAAAAAAAAAAAAAAAAAAAAAAAAAAAAAAAAAAAAAAAAAAAAAAAAAAAAAAAAAAAAAAAAAAAAAAAAAAAAAAAAAAAAAAAAAAAAAAAAAAAAAAAAAAAAAAAAAAAAAAAAAAAAAAAAAAAAAAAAAAAAAAAAAAAAAAAAAAAAAAAAAAAAAAAAAAAAAAAAAAAAAAAAAAAAAAAAAAAAAAAAAAAAAAAAAAAAAAAAAAAAAAAAAAAAAAAAAAAAAAAAAAAAAAAAAAAAAAAAAAAAAAAAAAAAAAAAAAAAAAAAAAAAAAAAAAAAAAAAAAAAAAAAAAAAAAAAAAAAAAAAAAAAAAAAAAAAAAAAAAAAAAAAAAAAAAAAAAAAAAAAAAAAAAAAAAAAAAAAAAAAAAAAAAAAAAAAAAAAAAAAAAAAAAAAAAAAAAAAAAAAAAAAAAAAAAAAAAAAAAAAAAAAAAAAAAAAAAAAAAAAAAAAAAAAAAAAAAAAAAAAAAAAAAAAAAAAAAAAAAAAAAAAAAAAAAAAAAAAAAAAAAAAAAAAAAAAAAAAAAAAAAAAAAAAAAAAAAAAAAAAAAAAAAAAAAAAAAAAAAAAAAAAAAAAAAAAAAAAAAAAAAAAAAAAAAAAAAAAAAAAAAAAAAAAAAAAAAAAAAAAAAAAAAAAAAAAAAAAAAAAAAAAAAAAAAAAAAAAAAAAAAAAAAAAAAAAAAAAAAAAAAAAAAAAAAAAAAAAAAAAAAAAAAAAAAAAAAAAAAAAAAAAAAAAAAAAAAAAAAAAAAAAAAAAAAAAAAAAAAAAAAAAAAAAAAAAAAAAAAAAAAAAAAAAAAAAAAAAAAAAAAAAAAAAAAAAAAAAAAAAAAAAAAAAAAAAAAAAAAAAAAAAAAAAAAAAAAAAAAAAAAAAAAAAAAAAAAAAAAAAAAAAAAAAAAAAAAAAAAAAAAAAAAAAAAAAAAAAAAAAAAAAAAAAAAAAAAAAAAAAAAAAAAAAAAAAAAAAAAAAAAAAAAAAAAAAAAAAAAAAAAAAAAAAAAAAAAAAAAAAAAAAAAAAAAAAAAAAAAAAAAAAAAAAAAAAAAAAAAAAAAAAAAAAAAAAAAAAAAAAAAAAAAAAAAAAAAAAAAAAAAAAAAAAAAAAAAAAAAAAAAAAAAAAAAAAAAAAAAAAAAAAAAAAAAAAAAAAAAAAAAAAAAAAAAAAAAAAAAAAAAAAAAAAAAAAAAAAAAAAAAAAAAAAAAAAAAAAAAAAAAAAAAAAAAAAAAAAAAAAAAAAAAAAAAAAAAAAAAAAAAAAAAAAAAAAAAAAAAAAAAAAAAAAAAAAAAAAAAAAAAAAAAAAAAAAAAAAAAAAAAAAAAAAAAAAAAAAAAAAAAAAAAAAAAAAAAAAAAAAAAAAAAAAAAAAAAAAAAAAAAAAAAAAAAAAAAAAAAAAAAAAAAAAAAAAAAAAAAAAAAAAAAAAAAAAAAAAAAAAAAAAAAAAAAAAAAAAAAAAAAAAAAAAAAAAAAAAAAAAAAAAAAAAAAAAAAAAAAAAAAAAAAAAAAAAAAAAAAAAAAAAAAAAAAAAAAAAAAAAAAAAAAAAAAAAAAAAAAAAAAAAAAAAAAAAAAAAAAAAAAAAAAAAAAAAAAAAAAAAAAAAAAAAAAAAAAAAAAAAAAAAAAAAAAAAAAAAAAAAAAAAAAAAAAAAAAAAAAAAAAAAAAAAAAAAAAAAAAAAAAAAAAAAAAAAAAAAAAAAAAAAAAAAAAAAAAAAAAAAAAAAAAAAAAAAAAAAAAAAAAAAAAAAAAAAAAAAAAAAAAAAAAAAAAAAAAAAAAAAAAAAAAAAAAAAAAAAAAAAAAAAAAAAAAAAAAAAAAAAAAAAAAAAAAAAAAAAAAAAAAAAAAAAAAAAAAAAAAAAAAAAAAAAAAAAAAAAAAAAAAAAAAAAAAAAAAAAAAAAAAAAAAAAAAAAAAAAAAAAAAAAAAAAAAAAAAAAAAAAAAAAAAAAAAAAAAAAAAAAAAAAAAAAAAAAAAAAAAAAAAAAAAAAAAAAAAAAAAAAAAAAAAAAAAAAAAAAAAAAAAAAAAAAAAAAAAAAAAAAAAAAAAAAAAAAAAAAAAAAAAAAAAAAAAAAAAAAAAAAAAAAAAAAAAAAAAAAAAAAAAAAAAAAAAAAAAAAAAAAAAAAAAAAAAAAAAAAAAAAAAAAAAAAAAAAAAAAAAAAAAAAAAAAAAAAAAAAAAAAAAAAAAAAAAAAAAAAAAAAAAAAAAAAAAAAAAAAAAAAAAAAAAAAAAAAAAAAAAAAAAAAAAAAAAAAAAAAAAAAAAAAAAAAAAAAAAAAAAAAAAAAAAAAAAAAAAAAAAAAAAAAAAAAAAAAAAAAAAAAAAAAAAAAAAAAAAAAAAAAAAAAAAAAAAAAAAAAAAAAAAAAAAAAAAAAAAAAAAAAAAAAAAAAAAAAAAAAAAAAAAAAAAAAAAAAAAAAAAAAAAAAAAAAAAAAAAAAAAAAAAAAAAAAAAAAAAAAAAAAAAAAAAAAAAAAAAAAAAAAAAAAAAAAAAAAAAAAAAAAAAAAAAAAAAAAAAAAAAAAAAAAAAAAAAAAAAAAAAAAAAAAAAAAAAAAAAAAAAAAAAAAAAAAAAAAAAAAAAAAAAAAAAAAAAAAAAAAAAAAAAAAAAAAAAAAAAAAAAAAAAAAAAAAAAAAAAAAAAAAAAAAAAAAAAAAAAAAAAAAAAAAAAAAAAAAAAAAAAAAAAAAAAAAAAAAAAAAAAAAAAAAAAAAAAAAAAAAAAAAAAAAAAAAAAAAAAAAAAAAAAAAAAAAAAAAAAAAAAAAAAAAAAAAAAAAAAAAAAAAAAAAAAAAAAAAAAAAAAAAAAAAAAAAAAAAAAAAAAAAAAAAAAAAAAAAAAAAAAAAAAAAAAAAAAAAAAAAAAAAAAAAAAAAAAAAAAAAAAAAAAAAAAAAAAAAAAAAAAAAAAAAAAAAAAAAAAAAAAAAAAAAAAAAAAAAAAAAAAAAAAAAAAAAAAAAAAAAAAAAAAAAAAAAAAAAAAAAAAAAAAAAAAAAAAAAAAAAAAAAAAAAAAAAAAAAAAAAAAAAAAAAAAAAAAAAAAAAAAAAAAAAAAAAAAAAAAAAAAAAAAAAAAAAAAAAAAAAAAAAAAAAAAAAAAAAAAAAAAAAAAAAAAAAAAAAAAAAAAAAAAAAAAAAAAAAAAAAAAAAAAAAAAAAAAAAAAAAAAAAAAAAAAAAAAAAAAAAAAAAAAAAAAAAAAAAAAAAAAAAAAAAAAAAAAAAAAAAAAAAAAAAAAAAAAAAAAAAAAAAAAAAAAAAAAAAAAAAAAAAAAAAAAAAAAAAAAAAAAAAAAAAAAAAAAAAAAAAAAAAAAAAAAAAAAAAAAAAAAAAAAAAAAAAAAAAAAAAAAAAAAAAAAAAAAAAAAAAAAAAAAAAAAAAAAAAAAAAAAAAAAAAAAAAAAAAAAAAAAAAAAAAAAAAAAAAAAAAAAAAAAAAAAAAAAAAAAAAAAAAAAAAAAAAAAAAAAAAAAAAAAAAAAAAAAAAAAAAAAAAAAAAAAAAAAAAAAAAAAAAAAAAAAAAAAAAAAAAAAAAAAAAAAAAAAAAAAAAAAAAAAAAAAAAAAAAAAAAAAAAAAAAAAAAAAAAAAAAAAAAAAAAAAAAAAAAAAAAAAAAAAAAAAAAAAAAAAAAAAAAAAAAAAAAAAAAAAAAAAAAAAAAAAAAAAAAAAAAAAAAAAAAAAAAAAAAAAAAAAAAAAAAAAAAAAAAAAAAAAAAAAAAAAAAAAAAAAAAAAAAAAAAAAAAAAAAAAAAAAAAAAAAAAAAAAAAAAAAAAAAAAAAAAAAAAAAAAAAAAAAAAAAAAAAAAAAAAAAAAAAAAAAAAAAAAAAAAAAAAAAAAAAAAAAAAAAAAAAAAAAAAAAAAAAAAAAAAAAAAAAAAAAAAAAAAAAAAAAAAAAAAAAAAAAAAAAAAAAAAAAAAAAAAAAAAAAAAAAAAAAAAAAAAAAAAAAAAAAAAAAAAAAAAAAAAAAAAAAAAAAAAAAAAAAAAAAAAAAAAAAAAAAAAAAAAAAAAAAAPZYQCI3MovkRPkcPVZS1STRR1ytVPGYjZbuf8SkmWvcXac9OaE1FWrrYLIEPattFckwLJyN+nNzroC2SBpomC/b4vY=</c2pa:manifest></metadata>
<g id="Logo text" clip-path="url(#clip0_416_1364)">
<path id="Vector" d="M27.5446 30.72V31.1178H15.1774V30.7221L17.741 28.9176V15.7996C17.741 12.8993 16.7524 11.4491 14.3243 11.4491C12.7048 11.4491 11.3097 12.1535 10.1856 13.3861V28.9238L12.7492 30.7283V31.1178H0.381989V30.7221L2.99008 28.9176V2.55322L0.157593 0.705264V0.30957H10.1856V12.0147C11.8051 9.98646 14.193 8.32911 17.8765 8.32911C22.4639 8.32911 24.9366 10.8814 24.9366 15.4578V28.9238L27.5446 30.72Z" fill="#161616"></path>
<path id="Vector_2" d="M50.2998 24.2937C48.7714 28.4371 45.5345 31.6441 39.5033 31.6441C32.5322 31.6441 27.6759 27.0656 27.6759 20.2C27.6759 12.456 32.7121 8.31885 39.6388 8.31885C45.9897 8.31885 50.2511 11.6626 50.2511 18.263V19.5392H35.3245C35.551 25.4808 38.248 28.5158 42.1157 28.5158C45.9389 28.5158 47.9627 26.4441 49.4022 23.8959L50.2998 24.2937ZM35.3245 18.5282H43.2398V17.6042C43.1953 11.7081 42.1157 9.32984 39.6875 9.32984C37.2149 9.32984 35.4155 11.9712 35.3245 18.5282Z" fill="#161616"></path>
<path id="Vector_3" d="M76.0229 30.72V31.1178H67.7033L66.4437 27.6415C64.7353 30.1938 62.3516 31.646 59.4281 31.646C55.9203 31.646 52.1437 30.1959 52.1437 25.3522C52.1437 21.6998 55.336 19.8063 58.9349 18.93C61.543 18.3085 64.1955 17.6538 66.2638 17.0385V13.3012C66.2638 10.6618 65.3196 9.34009 63.2069 9.34009C62.6291 9.338 62.0537 9.41257 61.4964 9.56176L54.7962 17.0302H54.3919L54.0765 9.32973C57.7642 8.67093 61.092 8.3291 64.3754 8.3291C70.7157 8.3291 73.4678 11.0907 73.4678 14.7514V28.8389L76.0229 30.72ZM66.2701 26.5393V17.9128L63.0778 19.0128C60.5586 20.0259 59.2545 21.8739 59.2545 24.4262C59.2545 27.1194 60.7364 28.7395 62.7179 28.7395C64.1066 28.7395 65.1397 28.0351 66.2701 26.5393Z" fill="#161616"></path>
<path id="Vector_4" d="M95.8101 8.84703L95.5412 16.4605H95.1348L90.2785 11.0907C88.8855 11.7122 87.8948 12.7625 87.0861 14.2604V28.9156L90.9093 30.72V31.1178H77.3269V30.7221L79.8906 28.9176V11.101L77.1025 9.25308V8.84703H85.6466L87.0416 12.6797C88.2991 10.3034 90.1896 8.45548 92.6177 8.45548C93.6955 8.43609 94.7705 8.56795 95.8101 8.84703Z" fill="#161616"></path>
<path id="Vector_5" d="M107.521 9.85837V25.3961C107.521 27.5527 108.33 28.7854 109.814 28.7854C110.985 28.7854 111.931 28.1245 112.737 26.6723L113.637 27.1135C112.289 29.9725 110.265 31.6464 106.577 31.6464C102.305 31.6464 100.326 29.3137 100.326 26.0528V9.85837H97.1777V8.93439L99.9298 8.10572L107.17 2.4707H107.53V8.84738H113.646V9.85837H107.521Z" fill="#161616"></path>
<path id="Vector_6" d="M140.87 30.72V31.1178H128.509V30.7221L131.072 28.9176V15.7996C131.072 12.8993 130.084 11.4491 127.656 11.4491C126.036 11.4491 124.643 12.1535 123.517 13.3861V28.9238L126.081 30.7283V31.1178H113.707V30.7221L116.317 28.9176V2.55322L113.478 0.705264V0.30957H123.506V12.0147C125.122 9.98646 127.514 8.32911 131.201 8.32911C135.789 8.32911 138.261 10.8814 138.261 15.4578V28.9238L140.87 30.72Z" fill="#161616"></path>
<path id="Vector_7" d="M147.026 4.51343C147 5.63965 146.525 6.71142 145.703 7.49918C144.88 8.28695 143.774 8.72808 142.623 8.72808C141.472 8.72808 140.367 8.28695 139.544 7.49918C138.721 6.71142 138.246 5.63965 138.221 4.51343C138.221 2.18691 140.181 0.320312 142.637 0.320312C145.093 0.320312 147.026 2.18691 147.026 4.51343ZM139.32 4.51343C139.32 6.37795 140.73 7.86129 142.663 7.86129C144.545 7.86129 145.929 6.37795 145.929 4.54657C145.929 2.71519 144.545 1.17178 142.637 1.17178C140.73 1.17178 139.32 2.67169 139.32 4.51343ZM141.958 6.7115H140.965V2.52874C141.508 2.43479 142.058 2.39178 142.61 2.4003C143.42 2.4003 143.787 2.52874 144.091 2.70691C144.228 2.81966 144.337 2.96106 144.411 3.12065C144.484 3.28023 144.519 3.45391 144.515 3.62881C144.515 4.08873 144.151 4.45749 143.628 4.60044V4.65016C144.051 4.80346 144.28 5.11007 144.411 5.67358C144.542 6.31166 144.623 6.56855 144.724 6.72185H143.653C143.522 6.56855 143.442 6.18529 143.315 5.69844C143.236 5.23852 142.974 5.03342 142.425 5.03342H141.956L141.958 6.7115ZM141.983 4.33319H142.453C143.003 4.33319 143.446 4.15502 143.446 3.71168C143.446 3.32842 143.16 3.0736 142.531 3.0736C142.347 3.06998 142.163 3.08666 141.983 3.12332V4.33319Z" fill="#161616"></path>
</g>
<defs>
<clipPath id="clip0_416_1364">
<rect width="147.282" height="32" fill="white"></rect>
</clipPath>
</defs>
</svg>